2700 0 1 0           
15 SolidWorks 2020 14 ACIS 27.0.2 NT 24 Wed Oct 13 15:47:32 2021 
1 9.9999999999999995e-07 1e-10 
T @52 SDQZ3TWS_FZ55B9VS5C_EXPFN7N4K87FF8PVQ8QHUAVEFC5379R4 
-0 body $1 -1 -1 $-1 0 $2 $-1 $-1 F #
-1 name_attrib-gen-attrib $-1 -1 $-1 $-1 $0 2 1 1 1 1 1 1 1 1 1 1 1 1 1 0 1 1 1 @23 teardrop_fairing_simple #
-2 lump $3 -1 -1 $-1 $-1 $4 $0 F #
-3 rgb_color-st-attrib $-1 -1 $-1 $-1 $2 2 1 2 1 1 1 1 1 1 1 1 1 1 1 0 1 1 1 0.792156862745098 0.81960784313725488 0.93333333333333335 #
-4 shell $-1 -1 -1 $-1 $5 $-1 $6 $-1 $2 F #
-5 shell $-1 -1 -1 $-1 $-1 $-1 $7 $-1 $2 F #
-6 face $8 -1 -1 $-1 $9 $10 $4 $-1 $11 reversed single F F #
-7 face $12 -1 -1 $-1 $13 $14 $5 $-1 $15 forward single F F #
-8 integer_attrib-name_attrib-gen-attrib $-1 -1 $-1 $-1 $6 2 1 2 1 1 1 1 1 1 1 1 1 1 1 0 1 1 1 @8 Combine1 0 #
-9 face $16 -1 -1 $-1 $17 $18 $4 $-1 $19 reversed single F F #
-10 loop $-1 -1 -1 $-1 $-1 $20 $6 F unknown #
-11 plane-surface $-1 -1 -1 $-1 -513.41248871444691 -534.0311117929956 -1588 1 0 0 0 0 -1000 forward_v I I I I #
-12 integer_attrib-name_attrib-gen-attrib $-1 -1 $-1 $-1 $7 2 1 2 1 1 1 1 1 1 1 1 1 1 1 0 1 1 1 @8 Combine1 0 #
-13 face $21 -1 -1 $-1 $22 $23 $5 $-1 $24 forward single F F #
-14 loop $-1 -1 -1 $-1 $-1 $25 $7 F unknown #
-15 spline-surface $-1 -1 -1 $-1 forward { exactsur 0 full nurbs 3 3 both open open high none 2 2 
	0 3 1 3 
	0 3 1 3 
	-5.5990851657016993e-14 -457.20000000000005 0 1 
	-5.9705029836140518e-14 -487.52856642184088 443.02922332268355 1 
	-6.0602199338922858e-14 -494.85451136700374 1157.2864682172105 1 
	0 0 1371.5999999999999 1 
	914.39999999999975 -457.20000000000016 0 0.33333333333333343 
	975.05713284368142 -487.52856642184099 443.02922332268349 0.33333333333333343 
	989.70902273400725 -494.85451136700385 1157.2864682172105 0.33333333333333343 
	0 0 1371.5999999999999 0.33333333333333343 
	914.39999999999998 457.19999999999982 0 0.33333333333333343 
	975.05713284368164 487.52856642184065 443.02922332268349 0.33333333333333343 
	989.70902273400736 494.85451136700351 1157.2864682172105 0.33333333333333343 
	0 0 1371.5999999999999 0.33333333333333343 
	1.1198170331403399e-13 457.20000000000005 0 1 
	1.1941005967228104e-13 487.52856642184088 443.02922332268355 1 
	1.2120439867784572e-13 494.85451136700374 1157.2864682172105 1 
	0 0 1371.5999999999999 1 
	0 
	0 
	0 
	0 
	0 
	0 
	0 
	F 1 F 0 F 1 F 0 } I I I I #
-16 integer_attrib-name_attrib-gen-attrib $-1 -1 $-1 $-1 $9 2 1 2 1 1 1 1 1 1 1 1 1 1 1 0 1 1 1 @8 Combine1 0 #
-17 face $26 -1 -1 $-1 $27 $28 $4 $-1 $29 forward single F F #
-18 loop $-1 -1 -1 $-1 $-1 $30 $9 F unknown #
-19 plane-surface $-1 -1 -1 $-1 -513.41248871444691 534.0311117929956 -1588 0 -1 0 0 0 -1000 forward_v I I I I #
-20 coedge $-1 -1 -1 $-1 $31 $32 $33 $34 forward $10 $-1 #
-21 integer_attrib-name_attrib-gen-attrib $-1 -1 $-1 $-1 $13 2 1 2 1 1 1 1 1 1 1 1 1 1 1 0 1 1 1 @8 Combine1 0 #
-22 face $35 -1 -1 $-1 $36 $37 $5 $-1 $38 forward single F F #
-23 loop $-1 -1 -1 $-1 $-1 $39 $13 F unknown #
-24 spline-surface $-1 -1 -1 $-1 forward { exactsur 1 full nurbs 2 3 both open open low none 2 2 
	0 2 0.94710169466121918 2 
	0 3 1 3 
	0 0 -1371.5999999999999 1 
	-4.5808983921726566e-14 -374.05874047619744 -754.17242468131076 1 
	-5.5990851657016993e-14 -457.20000000000005 0 1 
	0 0 -1371.5999999999999 0.33333333333333343 
	748.11748095239477 -374.0587404761975 -754.17242468131076 0.33333333333333343 
	914.39999999999975 -457.20000000000016 0 0.33333333333333343 
	0 0 -1371.5999999999999 0.33333333333333343 
	748.11748095239489 374.05874047619727 -754.17242468131076 0.33333333333333343 
	914.39999999999998 457.19999999999982 0 0.33333333333333343 
	0 0 -1371.5999999999999 1 
	9.1617967843453133e-14 374.05874047619744 -754.17242468131076 1 
	1.1198170331403399e-13 457.20000000000005 0 1 
	0 
	0 
	0 
	0 
	0 
	0 
	0 
	F 1 F 0 F 1 F 0 } I I I I #
-25 coedge $-1 -1 -1 $-1 $40 $41 $42 $43 reversed $14 $44 #
-26 integer_attrib-name_attrib-gen-attrib $-1 -1 $-1 $-1 $17 2 1 2 1 1 1 1 1 1 1 1 1 1 1 0 1 1 1 @8 Combine1 0 #
-27 face $45 -1 -1 $-1 $46 $47 $4 $-1 $48 forward single F F #
-28 loop $-1 -1 -1 $-1 $-1 $49 $17 F unknown #
-29 plane-surface $-1 -1 -1 $-1 513.41248871444691 -534.0311117929956 -1588 1 0 0 0 0 -1000 forward_v I I I I #
-30 coedge $-1 -1 -1 $-1 $50 $51 $52 $53 forward $18 $-1 #
-31 coedge $-1 -1 -1 $-1 $54 $20 $51 $55 reversed $10 $-1 #
-32 coedge $-1 -1 -1 $-1 $20 $54 $56 $57 forward $10 $-1 #
-33 coedge $-1 -1 -1 $-1 $58 $52 $20 $34 reversed $59 $-1 #
-34 edge $-1 -1 -1 $-1 $60 1 $61 0 $20 $62 forward @7 unknown F #
-35 integer_attrib-name_attrib-gen-attrib $-1 -1 $-1 $-1 $22 2 1 2 1 1 1 1 1 1 1 1 1 1 1 0 1 1 1 @8 Combine1 0 #
-36 face $63 -1 -1 $-1 $-1 $64 $5 $-1 $65 forward single F F #
-37 loop $-1 -1 -1 $-1 $-1 $66 $22 F unknown #
-38 spline-surface $-1 -1 -1 $-1 forward { exactsur 2 full nurbs 2 3 both open open low none 2 2 
	0 2 0.94710169466121918 2 
	0 3 1 3 
	0 0 -1371.5999999999999 1 
	0 374.05874047619744 -754.17242468131076 1 
	0 457.20000000000005 0 1 
	0 0 -1371.5999999999999 0.33333333333333343 
	-748.11748095239477 374.05874047619744 -754.17242468131076 0.33333333333333343 
	-914.39999999999998 457.20000000000005 0 0.33333333333333343 
	0 0 -1371.5999999999999 0.33333333333333343 
	-748.11748095239477 -374.05874047619733 -754.17242468131076 0.33333333333333343 
	-914.39999999999998 -457.19999999999999 0 0.33333333333333343 
	0 0 -1371.5999999999999 1 
	-4.5808983921726566e-14 -374.05874047619744 -754.17242468131076 1 
	-5.5990851657016993e-14 -457.20000000000005 0 1 
	0 
	0 
	0 
	0 
	0 
	0 
	0 
	F 1 F 0 F 1 F 0 } I I I I #
-39 coedge $-1 -1 -1 $-1 $67 $42 $68 $69 reversed $23 $70 #
-40 coedge $-1 -1 -1 $-1 $41 $25 $71 $72 forward $14 $73 #
-41 coedge $-1 -1 -1 $-1 $25 $40 $74 $75 reversed $14 $76 #
-42 coedge $-1 -1 -1 $-1 $39 $67 $25 $43 forward $23 $77 #
-43 edge $-1 -1 -1 $-1 $78 1 $79 0 $42 $80 forward @7 unknown F #
-44 pcurve $-1 -1 -1 $-1 0 forward { exppc 3 nubs 2 open 25 
	-1.5707963267948966 2 -1.439896632895322 2 -1.3089969389957472 2 -1.1780972450961724 2 -1.0471975511965979 2 
	-0.91629785729702318 2 -0.7853981633974485 2 -0.65449846949787371 2 -0.52359877559829904 2 -0.39269908169872425 2 
	-0.26179938779914952 2 -0.13089969389957476 2 0 2 0.13089969389957468 2 0.26179938779914935 2 
	0.39269908169872403 2 0.5235987755982987 2 0.65449846949787349 2 0.78539816339744828 2 0.91629785729702307 2 
	1.0471975511965979 2 1.1780972450961724 2 1.3089969389957472 2 1.439896632895322 2 1.5707963267948966 2 
	0 1 
	0 0.93860700838530309 
	0 0.93848823149624627 
	0 0.90960399047564322 
	0 0.88366349398948019 
	0 0.85771409925226194 
	0 0.83408931895948812 
	6.1131561789292443e-21 0.83398181498493029 
	2.5824533734861364e-18 0.78867513459481298 
	5.2558274793292482e-21 0.74665840016359797 
	0 0.74657271301565031 
	1.0591534389937151e-18 0.72625448696427797 
	2.057289711916665e-18 0.70710678118654768 
	1.0033004508548995e-18 0.68795646351196638 
	0 0.66972712943168689 
	0 0.66964594644726394 
	0 0.6339745962155614 
	1.1937268407029935e-18 0.59952925786314792 
	1.1962592763307227e-18 0.59945618368982911 
	5.9166424152883809e-19 0.58245945726000681 
	0 0.5658262487936665 
	0 0.5491924143644461 
	0 0.53277173140761913 
	6.4166891336656093e-21 0.5326999020571056 
	2.9275778120129426e-18 0.5 
	6.4166891336656116e-21 0.46730009794289445 
	0 0.46722826859238098 
	0 0.45080758563555412 
	0 0.43417375120633361 
	3.2281822831897688e-18 0.4175405427399933 
	6.5269163334489387e-18 0.40054381631017105 
	6.524457596727264e-18 0.40047074213685219 
	5.3654705777692478e-18 0.36602540378443876 
	1.2183330107091144e-20 0.33035405355273617 
	0 0.33027287056831323 
	1.0033004518709591e-18 0.31204353648803373 
	2.057289714000119e-18 0.29289321881345254 
	1.0591534400663381e-18 0.27374551303572231 
	0 0.25342728698435002 
	6.6501089810074839e-21 0.25334159983640225 
	3.2675342635570919e-18 0.21132486540518713 
	7.7348723807401152e-21 0.16601818501506985 
	0 0.16591068104051204 
	0 0.1422859007477382 
	0 0.11633650601052001 
	0 0.090396009524356932 
	0 0.061511768503753908 
	0 0.061392991614697127 
	0 9.1848509936051472e-17 
	0.001 
	0.014375541929316137 
	spline forward { ref 0 } I I I I 
	} 0 0 #
-45 integer_attrib-name_attrib-gen-attrib $-1 -1 $-1 $-1 $27 2 1 2 1 1 1 1 1 1 1 1 1 1 1 0 1 1 1 @8 Combine1 0 #
-46 face $81 -1 -1 $-1 $82 $83 $4 $-1 $84 forward single F F #
-47 loop $-1 -1 -1 $-1 $-1 $85 $27 F unknown #
-48 plane-surface $-1 -1 -1 $-1 -513.41248871444691 -534.0311117929956 -1588 0 -1 0 0 0 -1000 forward_v I I I I #
-49 coedge $-1 -1 -1 $-1 $86 $87 $88 $89 reversed $28 $-1 #
-50 coedge $-1 -1 -1 $-1 $90 $30 $87 $91 reversed $18 $-1 #
-51 coedge $-1 -1 -1 $-1 $30 $90 $31 $55 forward $18 $-1 #
-52 coedge $-1 -1 -1 $-1 $33 $88 $30 $53 reversed $59 $-1 #
-53 edge $-1 -1 -1 $-1 $61 1 $92 0 $30 $93 forward @7 unknown F #
-54 coedge $-1 -1 -1 $-1 $32 $31 $94 $95 reversed $10 $-1 #
-55 edge $-1 -1 -1 $-1 $96 1 $61 0 $51 $97 forward @7 unknown F #
-56 coedge $-1 -1 -1 $-1 $98 $85 $32 $57 reversed $47 $-1 #
-57 edge $-1 -1 -1 $-1 $99 1 $60 0 $32 $100 forward @7 unknown F #
-58 coedge $-1 -1 -1 $-1 $88 $33 $85 $101 forward $59 $-1 #
-59 loop $-1 -1 -1 $-1 $-1 $33 $82 F unknown #
-60 vertex $-1 -1 -1 $-1 $57 $102 #
-61 vertex $-1 -1 -1 $-1 $53 $103 #
-62 straight-curve $-1 -1 -1 $-1 -513.41248871444691 -534.0311117929956 1460 0 1000 0 I I #
-63 integer_attrib-name_attrib-gen-attrib $-1 -1 $-1 $-1 $36 2 1 2 1 1 1 1 1 1 1 1 1 1 1 0 1 1 1 @8 Combine1 0 #
-64 loop $-1 -1 -1 $-1 $-1 $71 $36 F unknown #
-65 spline-surface $-1 -1 -1 $-1 forward { exactsur 4 full nurbs 3 3 both open open high none 2 2 
	0 3 1 3 
	0 3 1 3 
	0 457.20000000000005 0 1 
	0 487.52856642184088 443.02922332268355 1 
	0 494.85451136700374 1157.2864682172105 1 
	0 0 1371.5999999999999 1 
	-914.39999999999998 457.20000000000005 0 0.33333333333333343 
	-975.05713284368164 487.52856642184088 443.02922332268349 0.33333333333333343 
	-989.70902273400725 494.85451136700379 1157.2864682172105 0.33333333333333343 
	0 0 1371.5999999999999 0.33333333333333343 
	-914.39999999999998 -457.19999999999999 0 0.33333333333333343 
	-975.05713284368164 -487.52856642184082 443.02922332268349 0.33333333333333343 
	-989.70902273400736 -494.85451136700362 1157.2864682172105 0.33333333333333343 
	0 0 1371.5999999999999 0.33333333333333343 
	-5.5990851657016993e-14 -457.20000000000005 0 1 
	-5.9705029836140518e-14 -487.52856642184088 443.02922332268355 1 
	-6.0602199338922858e-14 -494.85451136700374 1157.2864682172105 1 
	0 0 1371.5999999999999 1 
	0 
	0 
	0 
	0 
	0 
	0 
	0 
	F 1 F 0 F 1 F 0 } I I I I #
-66 coedge $-1 -1 -1 $-1 $68 $104 $67 $105 reversed $37 $106 #
-67 coedge $-1 -1 -1 $-1 $42 $39 $66 $105 forward $23 $107 #
-68 coedge $-1 -1 -1 $-1 $104 $66 $39 $69 forward $37 $108 #
-69 edge $-1 -1 -1 $-1 $109 1 $79 0 $68 $110 forward @7 unknown F #
-70 pcurve $-1 -1 -1 $-1 0 forward { exppc 5 nubs 1 open 2 
	-0.94710169466121918 1 -0 1 
	0.94710169466121918 1 
	0 1 
	0.001 
	-1 
	spline forward { ref 1 } I I I I 
	} 0 0 #
-71 coedge $-1 -1 -1 $-1 $111 $74 $40 $72 reversed $64 $112 #
-72 edge $-1 -1 -1 $-1 $78 1 $113 0 $40 $114 forward @7 unknown F #
-73 pcurve $-1 -1 -1 $-1 0 forward { exppc 6 nubs 1 open 2 
	0 1 1 1 
	0 0 
	1 0 
	0.001 
	-1 
	spline forward { ref 0 } I I I I 
	} 0 0 #
-74 coedge $-1 -1 -1 $-1 $71 $111 $41 $75 forward $64 $115 #
-75 edge $-1 -1 -1 $-1 $79 1 $113 0 $74 $116 forward @7 unknown F #
-76 pcurve $-1 -1 -1 $-1 0 forward { exppc 7 nubs 1 open 2 
	-1 1 -0 1 
	1 1 
	0 1 
	0.001 
	-1 
	spline forward { ref 0 } I I I I 
	} 0 0 #
-77 pcurve $-1 -1 -1 $-1 0 forward { exppc 8 nubs 2 open 25 
	-1.5707963267948966 2 -1.439896632895322 2 -1.3089969389957472 2 -1.1780972450961724 2 -1.0471975511965979 2 
	-0.91629785729702318 2 -0.7853981633974485 2 -0.65449846949787371 2 -0.52359877559829904 2 -0.39269908169872425 2 
	-0.26179938779914952 2 -0.13089969389957476 2 0 2 0.13089969389957468 2 0.26179938779914935 2 
	0.39269908169872403 2 0.5235987755982987 2 0.65449846949787349 2 0.78539816339744828 2 0.91629785729702307 2 
	1.0471975511965979 2 1.1780972450961724 2 1.3089969389957472 2 1.439896632895322 2 1.5707963267948966 2 
	0.94710169466121918 9.1848509936051472e-17 
	0.9471016946612093 0.061392991614684457 
	0.9471016946612093 0.06151176850374121 
	0.94710169466121452 0.09039600952435127 
	0.94710169466121918 0.11633650601051995 
	0.9471016946612093 0.14228590074772535 
	0.94710169466120042 0.1659106810404887 
	0.94710169466120042 0.16601818501504656 
	0.94710169466121918 0.21132486540518711 
	0.94710169466121885 0.25334159983640153 
	0.94710169466121885 0.2534272869843493 
	0.94710169466121896 0.27374551303572192 
	0.94710169466121918 0.29289321881345243 
	0.94710169466121918 0.3120435364880334 
	0.94710169466121896 0.33027287056831273 
	0.94710169466121885 0.33035405355273567 
	0.94710169466121918 0.36602540378443871 
	0.94710169466121907 0.40047074213685219 
	0.94710169466121918 0.40054381631017105 
	0.94710169466120442 0.4175405427399933 
	0.94710169466118976 0.43417375120633356 
	0.94710169466120453 0.45080758563555412 
	0.94710169466121918 0.46722826859238092 
	0.94710169466121907 0.4673000979428944 
	0.94710169466121918 0.5 
	0.94710169466121907 0.5326999020571056 
	0.94710169466121918 0.53277173140761913 
	0.94710169466120453 0.54919241436444588 
	0.94710169466118976 0.5658262487936665 
	0.94710169466120431 0.58245945726000681 
	0.94710169466121918 0.599456183689829 
	0.94710169466121907 0.59952925786314781 
	0.94710169466121918 0.63397459621556129 
	0.94710169466121885 0.66964594644726438 
	0.94710169466121896 0.66972712943168733 
	0.94710169466121918 0.6879564635119666 
	0.94710169466121918 0.70710678118654757 
	0.94710169466121896 0.72625448696427797 
	0.94710169466121885 0.74657271301565076 
	0.94710169466121885 0.74665840016359841 
	0.94710169466121918 0.78867513459481298 
	0.94710169466120042 0.8339818149849535 
	0.94710169466120042 0.83408931895951144 
	0.9471016946612093 0.85771409925227471 
	0.94710169466121918 0.88366349398948019 
	0.94710169466121441 0.90960399047564877 
	0.9471016946612093 0.93848823149625893 
	0.9471016946612093 0.93860700838531563 
	0.94710169466121918 1 
	0.001 
	0.01437554192930679 
	spline forward { ref 1 } I I I I 
	} 0 0 #
-78 vertex $-1 -1 -1 $-1 $72 $117 #
-79 vertex $-1 -1 -1 $-1 $75 $118 #
-80 ellipse-curve $-1 -1 -1 $-1 0 0 0 0 0 1 457.20000000000005 0 0 1 I I #
-81 integer_attrib-name_attrib-gen-attrib $-1 -1 $-1 $-1 $46 2 1 2 1 1 1 1 1 1 1 1 1 1 1 0 1 1 1 @8 Combine1 0 #
-82 face $119 -1 -1 $-1 $-1 $59 $4 $-1 $120 reversed single F F #
-83 loop $-1 -1 -1 $-1 $-1 $94 $46 F unknown #
-84 plane-surface $-1 -1 -1 $-1 0 0 -1588 0 0 -1 -1000 0 0 forward_v I I I I #
-85 coedge $-1 -1 -1 $-1 $56 $121 $58 $101 reversed $47 $-1 #
-86 coedge $-1 -1 -1 $-1 $122 $49 $121 $123 reversed $28 $-1 #
-87 coedge $-1 -1 -1 $-1 $49 $122 $50 $91 forward $28 $-1 #
-88 coedge $-1 -1 -1 $-1 $52 $58 $49 $89 forward $59 $-1 #
-89 edge $-1 -1 -1 $-1 $124 1 $92 0 $88 $125 forward @7 unknown F #
-90 coedge $-1 -1 -1 $-1 $51 $50 $126 $127 reversed $18 $-1 #
-91 edge $-1 -1 -1 $-1 $128 1 $92 0 $87 $129 forward @7 unknown F #
-92 vertex $-1 -1 -1 $-1 $91 $130 #
-93 straight-curve $-1 -1 -1 $-1 -513.41248871444691 534.0311117929956 1460 1000 0 0 I I #
-94 coedge $-1 -1 -1 $-1 $126 $131 $54 $95 forward $83 $-1 #
-95 edge $-1 -1 -1 $-1 $99 1 $96 0 $94 $132 forward @7 unknown F #
-96 vertex $-1 -1 -1 $-1 $127 $133 #
-97 straight-curve $-1 -1 -1 $-1 -513.41248871444691 534.0311117929956 -1588 0 0 1000 I I #
-98 coedge $-1 -1 -1 $-1 $121 $56 $131 $134 forward $47 $-1 #
-99 vertex $-1 -1 -1 $-1 $57 $135 #
-100 straight-curve $-1 -1 -1 $-1 -513.41248871444691 -534.0311117929956 -1588 0 0 1000 I I #
-101 edge $-1 -1 -1 $-1 $60 1 $124 0 $58 $136 forward @7 unknown F #
-102 point $-1 -1 -1 $-1 -513.41248871444691 -534.0311117929956 1460 #
-103 point $-1 -1 -1 $-1 -513.41248871444691 534.0311117929956 1460 #
-104 coedge $-1 -1 -1 $-1 $66 $68 $111 $137 forward $37 $138 #
-105 edge $-1 -1 -1 $-1 $109 1 $78 0 $67 $139 forward @7 unknown F #
-106 pcurve $-1 -1 -1 $-1 0 forward { exppc 9 nubs 1 open 2 
	-0.94710169466121918 1 -0 1 
	0.94710169466121918 1 
	0 1 
	0.001 
	-1 
	spline forward { ref 2 } I I I I 
	} 0 0 #
-107 pcurve $-1 -1 -1 $-1 0 forward { exppc 10 nubs 1 open 2 
	0 1 0.94710169466121918 1 
	0 0 
	0.94710169466121918 0 
	0.001 
	-1 
	spline forward { ref 1 } I I I I 
	} 0 0 #
-108 pcurve $-1 -1 -1 $-1 0 forward { exppc 11 nubs 1 open 2 
	0 1 0.94710169466121918 1 
	0 0 
	0.94710169466121918 0 
	0.001 
	-1 
	spline forward { ref 2 } I I I I 
	} 0 0 #
-109 vertex $-1 -1 -1 $-1 $105 $140 #
-110 intcurve-curve $-1 -1 -1 $-1 forward { exactcur 12 full nubs 2 open 2 
	0 2 0.94710169466121918 2 
	0 0 -1371.5999999999999 
	0 374.05874047619744 -754.17242468131076 
	0 457.20000000000005 0 
	0 
	null_surface 
	null_surface 
	nullbs 
	nullbs 
	-1 
	-1 
	I I 
	0 
	0 
	0 
	
	-1 
	none F F 1 F 0 } I I #
-111 coedge $-1 -1 -1 $-1 $74 $71 $104 $137 reversed $64 $141 #
-112 pcurve $-1 -1 -1 $-1 0 forward { exppc 13 nubs 1 open 2 
	-1 1 -0 1 
	1 1 
	0 1 
	0.001 
	-1 
	spline forward { ref 4 } I I I I 
	} 0 0 #
-113 vertex $-1 -1 -1 $-1 $72 $142 #
-114 intcurve-curve $-1 -1 -1 $-1 forward { exactcur 14 full nubs 3 open 2 
	0 3 1 3 
	-5.5990851657016993e-14 -457.20000000000005 0 
	-5.9705029836140518e-14 -487.52856642184088 443.02922332268355 
	-6.0602199338922858e-14 -494.85451136700374 1157.2864682172105 
	0 0 1371.5999999999999 
	0 
	null_surface 
	null_surface 
	nullbs 
	nullbs 
	-1 
	-1 
	I I 
	0 
	0 
	0 
	
	-1 
	none F F 1 F 0 } I I #
-115 pcurve $-1 -1 -1 $-1 0 forward { exppc 15 nubs 1 open 2 
	0 1 1 1 
	0 0 
	1 0 
	0.001 
	-1 
	spline forward { ref 4 } I I I I 
	} 0 0 #
-116 intcurve-curve $-1 -1 -1 $-1 forward { exactcur 16 full nubs 3 open 2 
	0 3 1 3 
	0 457.20000000000005 0 
	0 487.52856642184088 443.02922332268355 
	0 494.85451136700374 1157.2864682172105 
	0 0 1371.5999999999999 
	0 
	null_surface 
	null_surface 
	nullbs 
	nullbs 
	-1 
	-1 
	I I 
	0 
	0 
	0 
	
	-1 
	none F F 1 F 0 } I I #
-117 point $-1 -1 -1 $-1 -5.5990851657016993e-14 -457.20000000000005 0 #
-118 point $-1 -1 -1 $-1 0 457.20000000000005 0 #
-119 integer_attrib-name_attrib-gen-attrib $-1 -1 $-1 $-1 $82 2 1 2 1 1 1 1 1 1 1 1 1 1 1 0 1 1 1 @8 Combine1 0 #
-120 plane-surface $-1 -1 -1 $-1 0 0 1460 0 0 -1 -1000 0 0 forward_v I I I I #
-121 coedge $-1 -1 -1 $-1 $85 $98 $86 $123 forward $47 $-1 #
-122 coedge $-1 -1 -1 $-1 $87 $86 $143 $144 forward $28 $-1 #
-123 edge $-1 -1 -1 $-1 $145 1 $124 0 $121 $146 forward @7 unknown F #
-124 vertex $-1 -1 -1 $-1 $123 $147 #
-125 straight-curve $-1 -1 -1 $-1 513.41248871444691 -534.0311117929956 1460 0 1000 0 I I #
-126 coedge $-1 -1 -1 $-1 $143 $94 $90 $127 forward $83 $-1 #
-127 edge $-1 -1 -1 $-1 $96 1 $128 0 $126 $148 forward @7 unknown F #
-128 vertex $-1 -1 -1 $-1 $127 $149 #
-129 straight-curve $-1 -1 -1 $-1 513.41248871444691 534.0311117929956 -1588 0 0 1000 I I #
-130 point $-1 -1 -1 $-1 513.41248871444691 534.0311117929956 1460 #
-131 coedge $-1 -1 -1 $-1 $94 $143 $98 $134 reversed $83 $-1 #
-132 straight-curve $-1 -1 -1 $-1 -513.41248871444691 -534.0311117929956 -1588 0 1000 0 I I #
-133 point $-1 -1 -1 $-1 -513.41248871444691 534.0311117929956 -1588 #
-134 edge $-1 -1 -1 $-1 $99 1 $145 0 $98 $150 forward @7 unknown F #
-135 point $-1 -1 -1 $-1 -513.41248871444691 -534.0311117929956 -1588 #
-136 straight-curve $-1 -1 -1 $-1 -513.41248871444691 -534.0311117929956 1460 1000 0 0 I I #
-137 edge $-1 -1 -1 $-1 $79 1 $78 0 $104 $151 forward @7 unknown F #
-138 pcurve $-1 -1 -1 $-1 0 forward { exppc 17 nubs 2 open 25 
	1.5707963267948966 2 1.7016960206944713 2 1.8325957145940461 2 1.9634954084936209 2 2.0943951023931957 2 
	2.2252947962927703 2 2.3561944901923448 2 2.4870941840919194 2 2.6179938779914944 2 2.7488935718910694 2 
	2.879793265790644 2 3.0106929596902186 2 3.1415926535897931 2 3.2724923474893677 2 3.4033920413889427 2 
	3.5342917352885177 2 3.6651914291880923 2 3.7960911230876668 2 3.9269908169872414 2 4.057890510886816 2 
	4.1887902047863905 2 4.3196898986859651 2 4.4505895925855405 2 4.5814892864851151 2 4.7123889803846897 2 
	0.94710169466121918 0 
	0.9471016946612093 0.061392991614684436 
	0.9471016946612093 0.061511768503741189 
	0.94710169466121452 0.09039600952435127 
	0.94710169466121918 0.11633650601051995 
	0.9471016946612093 0.14228590074772532 
	0.94710169466120042 0.16591068104048864 
	0.94710169466120042 0.1660181850150465 
	0.94710169466121918 0.21132486540518719 
	0.94710169466121885 0.25334159983640153 
	0.94710169466121885 0.2534272869843493 
	0.94710169466121896 0.27374551303572192 
	0.94710169466121918 0.29289321881345243 
	0.94710169466121896 0.31204353648803329 
	0.94710169466121896 0.33027287056831256 
	0.94710169466121885 0.3303540535527355 
	0.94710169466121918 0.36602540378443871 
	0.94710169466121907 0.40047074213685219 
	0.94710169466121918 0.40054381631017105 
	0.94710169466120431 0.4175405427399933 
	0.94710169466118976 0.43417375120633361 
	0.94710169466120453 0.45080758563555412 
	0.94710169466121918 0.46722826859238087 
	0.94710169466121907 0.46730009794289434 
	0.94710169466121918 0.49999999999999994 
	0.94710169466121907 0.53269990205710549 
	0.94710169466121918 0.53277173140761902 
	0.94710169466120464 0.54919241436444588 
	0.94710169466118976 0.5658262487936665 
	0.94710169466120431 0.58245945726000681 
	0.94710169466121918 0.59945618368982911 
	0.94710169466121907 0.59952925786314792 
	0.94710169466121918 0.6339745962155614 
	0.94710169466121885 0.66964594644726438 
	0.94710169466121896 0.66972712943168733 
	0.94710169466121896 0.68795646351196649 
	0.94710169466121918 0.70710678118654757 
	0.94710169466121896 0.72625448696427797 
	0.94710169466121885 0.74657271301565065 
	0.94710169466121885 0.7466584001635983 
	0.94710169466121918 0.78867513459481275 
	0.94710169466120042 0.83398181498495327 
	0.94710169466120042 0.83408931895951122 
	0.94710169466120941 0.85771409925227471 
	0.94710169466121918 0.88366349398948019 
	0.94710169466121441 0.90960399047564877 
	0.9471016946612093 0.93848823149625882 
	0.9471016946612093 0.93860700838531552 
	0.94710169466121918 1 
	0.001 
	0.014375541929306901 
	spline forward { ref 2 } I I I I 
	} 0 0 #
-139 intcurve-curve $-1 -1 -1 $-1 forward { exactcur 18 full nubs 2 open 2 
	0 2 0.94710169466121918 2 
	0 0 -1371.5999999999999 
	-4.5808983921726566e-14 -374.05874047619744 -754.17242468131076 
	-5.5990851657016993e-14 -457.20000000000005 0 
	0 
	null_surface 
	null_surface 
	nullbs 
	nullbs 
	-1 
	-1 
	I I 
	0 
	0 
	0 
	
	-1 
	none F F 1 F 0 } I I #
-140 point $-1 -1 -1 $-1 0 0 -1371.5999999999999 #
-141 pcurve $-1 -1 -1 $-1 0 forward { exppc 19 nubs 2 open 25 
	-4.7123889803846897 2 -4.5814892864851151 2 -4.4505895925855405 2 -4.3196898986859651 2 -4.1887902047863905 2 
	-4.057890510886816 2 -3.9269908169872414 2 -3.7960911230876668 2 -3.6651914291880923 2 -3.5342917352885177 2 
	-3.4033920413889427 2 -3.2724923474893677 2 -3.1415926535897931 2 -3.0106929596902186 2 -2.879793265790644 2 
	-2.7488935718910694 2 -2.6179938779914944 2 -2.4870941840919194 2 -2.3561944901923448 2 -2.2252947962927703 2 
	-2.0943951023931953 2 -1.9634954084936207 2 -1.8325957145940459 2 -1.7016960206944711 2 -1.5707963267948966 2 
	7.1872994903546286e-34 1 
	1.3878402376474992e-36 0.93860700838530275 
	0 0.93848823149624594 
	0 0.909603990475643 
	0 0.88366349398948019 
	0 0.85771409925226161 
	0 0.83408931895948757 
	0 0.83398181498492985 
	0 0.78867513459481275 
	0 0.74665840016359764 
	0 0.74657271301564998 
	2.1200278583551781e-18 0.72625448696427763 
	4.117922239968021e-18 0.70710678118654746 
	2.0082311285639136e-18 0.68795646351196638 
	0 0.66972712943168689 
	0 0.66964594644726394 
	0 0.6339745962155614 
	0 0.59952925786314792 
	0 0.59945618368982911 
	0 0.58245945726000681 
	0 0.5658262487936665 
	0 0.54919241436444599 
	0 0.53277173140761902 
	0 0.53269990205710549 
	0 0.49999999999999994 
	0 0.4673000979428944 
	0 0.46722826859238092 
	0 0.45080758563555401 
	0 0.43417375120633361 
	2.8915072306691824e-19 0.41754054273999347 
	5.8462082114806563e-19 0.40054381631017111 
	5.8788883378259828e-19 0.40047074213685224 
	2.1283482851039636e-18 0.36602540378443871 
	4.8328230235238278e-21 0.330354053552736 
	0 0.33027287056831306 
	1.0033004521006085e-18 0.31204353648803362 
	2.0572897144710189e-18 0.29289321881345248 
	1.0591534403087718e-18 0.27374551303572225 
	0 0.25342728698434991 
	0 0.25334159983640214 
	0 0.21132486540518705 
	0 0.16601818501507004 
	0 0.16591068104051224 
	0 0.14228590074773828 
	0 0.11633650601051991 
	0 0.090396009524356807 
	0 0.061511768503753783 
	0 0.061392991614697003 
	0 0 
	0.001 
	0.014375541929316449 
	spline forward { ref 4 } I I I I 
	} 0 0 #
-142 point $-1 -1 -1 $-1 0 0 1371.5999999999999 #
-143 coedge $-1 -1 -1 $-1 $131 $126 $122 $144 reversed $83 $-1 #
-144 edge $-1 -1 -1 $-1 $145 1 $128 0 $122 $152 forward @7 unknown F #
-145 vertex $-1 -1 -1 $-1 $123 $153 #
-146 straight-curve $-1 -1 -1 $-1 513.41248871444691 -534.0311117929956 -1588 0 0 1000 I I #
-147 point $-1 -1 -1 $-1 513.41248871444691 -534.0311117929956 1460 #
-148 straight-curve $-1 -1 -1 $-1 -513.41248871444691 534.0311117929956 -1588 1000 0 0 I I #
-149 point $-1 -1 -1 $-1 513.41248871444691 534.0311117929956 -1588 #
-150 straight-curve $-1 -1 -1 $-1 -513.41248871444691 -534.0311117929956 -1588 1000 0 0 I I #
-151 ellipse-curve $-1 -1 -1 $-1 0 0 0 0 0 1 457.20000000000005 0 0 1 I I #
-152 straight-curve $-1 -1 -1 $-1 513.41248871444691 -534.0311117929956 -1588 0 1000 0 I I #
-153 point $-1 -1 -1 $-1 513.41248871444691 -534.0311117929956 -1588 #
End-of-ACIS-data 